<mxfile host="app.diagrams.net" modified="2023-03-13T17:06:43.606Z" agent="5.0 (Windows NT 10.0; Win64; x64) AppleWebKit/537.36 (KHTML, like Gecko) Chrome/110.0.0.0 Safari/537.36" etag="XawOULesuV_MumuJQphX" version="21.0.2" type="github">
  <diagram id="C5RBs43oDa-KdzZeNtuy" name="Page-1">
    <mxGraphModel dx="1918" dy="800" grid="1" gridSize="10" guides="1" tooltips="1" connect="1" arrows="1" fold="1" page="1" pageScale="1" pageWidth="827" pageHeight="1169" math="0" shadow="0">
      <root>
        <mxCell id="WIyWlLk6GJQsqaUBKTNV-0" />
        <mxCell id="WIyWlLk6GJQsqaUBKTNV-1" parent="WIyWlLk6GJQsqaUBKTNV-0" />
        <mxCell id="WIyWlLk6GJQsqaUBKTNV-2" value="" style="rounded=0;html=1;jettySize=auto;orthogonalLoop=1;fontSize=11;endArrow=block;endFill=0;endSize=8;strokeWidth=1;shadow=0;labelBackgroundColor=none;edgeStyle=orthogonalEdgeStyle;" parent="WIyWlLk6GJQsqaUBKTNV-1" edge="1">
          <mxGeometry relative="1" as="geometry">
            <mxPoint x="874" y="220" as="sourcePoint" />
            <mxPoint x="874" y="270" as="targetPoint" />
          </mxGeometry>
        </mxCell>
        <mxCell id="WIyWlLk6GJQsqaUBKTNV-8" value="No" style="rounded=0;html=1;jettySize=auto;orthogonalLoop=1;fontSize=11;endArrow=block;endFill=0;endSize=8;strokeWidth=1;shadow=0;labelBackgroundColor=none;edgeStyle=orthogonalEdgeStyle;entryX=0.5;entryY=0;entryDx=0;entryDy=0;" parent="WIyWlLk6GJQsqaUBKTNV-1" source="WIyWlLk6GJQsqaUBKTNV-10" target="CyENhcCUOeG8lhQ-ETVA-25" edge="1">
          <mxGeometry x="-0.0577" y="-10" relative="1" as="geometry">
            <mxPoint as="offset" />
            <mxPoint x="714.04" y="410" as="targetPoint" />
            <Array as="points">
              <mxPoint x="684" y="380" />
            </Array>
          </mxGeometry>
        </mxCell>
        <mxCell id="WIyWlLk6GJQsqaUBKTNV-9" value="Yes" style="edgeStyle=orthogonalEdgeStyle;rounded=0;html=1;jettySize=auto;orthogonalLoop=1;fontSize=11;endArrow=block;endFill=0;endSize=8;strokeWidth=1;shadow=0;labelBackgroundColor=none;" parent="WIyWlLk6GJQsqaUBKTNV-1" source="WIyWlLk6GJQsqaUBKTNV-10" target="CyENhcCUOeG8lhQ-ETVA-7" edge="1">
          <mxGeometry y="10" relative="1" as="geometry">
            <mxPoint as="offset" />
            <mxPoint x="1034.0769230769229" y="410" as="targetPoint" />
          </mxGeometry>
        </mxCell>
        <mxCell id="WIyWlLk6GJQsqaUBKTNV-10" value="a == 0" style="rhombus;whiteSpace=wrap;html=1;shadow=0;fontFamily=Helvetica;fontSize=12;align=center;strokeWidth=1;spacing=6;spacingTop=-4;" parent="WIyWlLk6GJQsqaUBKTNV-1" vertex="1">
          <mxGeometry x="824" y="360" width="100" height="40" as="geometry" />
        </mxCell>
        <mxCell id="CyENhcCUOeG8lhQ-ETVA-0" value="Bắt đầu" style="ellipse;whiteSpace=wrap;html=1;" vertex="1" parent="WIyWlLk6GJQsqaUBKTNV-1">
          <mxGeometry x="824" y="170" width="100" height="50" as="geometry" />
        </mxCell>
        <mxCell id="CyENhcCUOeG8lhQ-ETVA-7" value="b == 0" style="rhombus;whiteSpace=wrap;html=1;" vertex="1" parent="WIyWlLk6GJQsqaUBKTNV-1">
          <mxGeometry x="994" y="410" width="100" height="40" as="geometry" />
        </mxCell>
        <mxCell id="CyENhcCUOeG8lhQ-ETVA-8" value="c == 0" style="rhombus;whiteSpace=wrap;html=1;shadow=0;fontFamily=Helvetica;fontSize=12;align=center;strokeWidth=1;spacing=6;spacingTop=-4;" vertex="1" parent="WIyWlLk6GJQsqaUBKTNV-1">
          <mxGeometry x="1154" y="470" width="100" height="40" as="geometry" />
        </mxCell>
        <mxCell id="CyENhcCUOeG8lhQ-ETVA-9" value="Yes" style="edgeStyle=orthogonalEdgeStyle;rounded=0;html=1;jettySize=auto;orthogonalLoop=1;fontSize=11;endArrow=block;endFill=0;endSize=8;strokeWidth=1;shadow=0;labelBackgroundColor=none;entryX=0.5;entryY=0;entryDx=0;entryDy=0;exitX=1;exitY=0.5;exitDx=0;exitDy=0;" edge="1" parent="WIyWlLk6GJQsqaUBKTNV-1" source="CyENhcCUOeG8lhQ-ETVA-7" target="CyENhcCUOeG8lhQ-ETVA-8">
          <mxGeometry y="10" relative="1" as="geometry">
            <mxPoint as="offset" />
            <mxPoint x="1124" y="430" as="sourcePoint" />
            <mxPoint x="1234.0769230769229" y="460" as="targetPoint" />
            <Array as="points">
              <mxPoint x="1204" y="430" />
            </Array>
          </mxGeometry>
        </mxCell>
        <mxCell id="CyENhcCUOeG8lhQ-ETVA-10" value="Yes" style="edgeStyle=orthogonalEdgeStyle;rounded=0;html=1;jettySize=auto;orthogonalLoop=1;fontSize=11;endArrow=block;endFill=0;endSize=8;strokeWidth=1;shadow=0;labelBackgroundColor=none;exitX=1;exitY=0.5;exitDx=0;exitDy=0;entryX=0.5;entryY=0;entryDx=0;entryDy=0;" edge="1" parent="WIyWlLk6GJQsqaUBKTNV-1" source="CyENhcCUOeG8lhQ-ETVA-8" target="CyENhcCUOeG8lhQ-ETVA-22">
          <mxGeometry y="10" relative="1" as="geometry">
            <mxPoint as="offset" />
            <mxPoint x="1284" y="470" as="sourcePoint" />
            <mxPoint x="1284" y="530" as="targetPoint" />
            <Array as="points">
              <mxPoint x="1284" y="490" />
            </Array>
          </mxGeometry>
        </mxCell>
        <mxCell id="CyENhcCUOeG8lhQ-ETVA-12" value="No" style="rounded=0;html=1;jettySize=auto;orthogonalLoop=1;fontSize=11;endArrow=block;endFill=0;endSize=8;strokeWidth=1;shadow=0;labelBackgroundColor=none;edgeStyle=orthogonalEdgeStyle;" edge="1" parent="WIyWlLk6GJQsqaUBKTNV-1">
          <mxGeometry x="-0.0577" y="-10" relative="1" as="geometry">
            <mxPoint as="offset" />
            <mxPoint x="1154" y="490" as="sourcePoint" />
            <mxPoint x="1124" y="540" as="targetPoint" />
            <Array as="points">
              <mxPoint x="1124" y="490" />
            </Array>
          </mxGeometry>
        </mxCell>
        <mxCell id="CyENhcCUOeG8lhQ-ETVA-17" value="No" style="rounded=0;html=1;jettySize=auto;orthogonalLoop=1;fontSize=11;endArrow=block;endFill=0;endSize=8;strokeWidth=1;shadow=0;labelBackgroundColor=none;edgeStyle=orthogonalEdgeStyle;entryX=0.5;entryY=0;entryDx=0;entryDy=0;" edge="1" parent="WIyWlLk6GJQsqaUBKTNV-1" target="CyENhcCUOeG8lhQ-ETVA-24">
          <mxGeometry x="-0.0577" y="-10" relative="1" as="geometry">
            <mxPoint as="offset" />
            <mxPoint x="994" y="430" as="sourcePoint" />
            <mxPoint x="934" y="470" as="targetPoint" />
            <Array as="points">
              <mxPoint x="934" y="430" />
            </Array>
          </mxGeometry>
        </mxCell>
        <mxCell id="CyENhcCUOeG8lhQ-ETVA-19" value="Nhập a, b, c" style="shape=parallelogram;perimeter=parallelogramPerimeter;whiteSpace=wrap;html=1;fixedSize=1;" vertex="1" parent="WIyWlLk6GJQsqaUBKTNV-1">
          <mxGeometry x="814" y="270" width="120" height="40" as="geometry" />
        </mxCell>
        <mxCell id="CyENhcCUOeG8lhQ-ETVA-21" value="Pt vô nghiệm!" style="shape=parallelogram;perimeter=parallelogramPerimeter;whiteSpace=wrap;html=1;fixedSize=1;" vertex="1" parent="WIyWlLk6GJQsqaUBKTNV-1">
          <mxGeometry x="1063" y="540" width="120" height="40" as="geometry" />
        </mxCell>
        <mxCell id="CyENhcCUOeG8lhQ-ETVA-22" value="Nghiệm tùy ý" style="shape=parallelogram;perimeter=parallelogramPerimeter;whiteSpace=wrap;html=1;fixedSize=1;" vertex="1" parent="WIyWlLk6GJQsqaUBKTNV-1">
          <mxGeometry x="1224" y="540" width="120" height="40" as="geometry" />
        </mxCell>
        <mxCell id="CyENhcCUOeG8lhQ-ETVA-24" value="x =&amp;nbsp; -c / b" style="rounded=0;whiteSpace=wrap;html=1;" vertex="1" parent="WIyWlLk6GJQsqaUBKTNV-1">
          <mxGeometry x="874" y="460" width="120" height="40" as="geometry" />
        </mxCell>
        <mxCell id="CyENhcCUOeG8lhQ-ETVA-25" value="delta = b*b - 4*a*c" style="rounded=0;whiteSpace=wrap;html=1;" vertex="1" parent="WIyWlLk6GJQsqaUBKTNV-1">
          <mxGeometry x="624" y="410" width="120" height="40" as="geometry" />
        </mxCell>
        <mxCell id="CyENhcCUOeG8lhQ-ETVA-26" value="delta &amp;lt; 0" style="rhombus;whiteSpace=wrap;html=1;" vertex="1" parent="WIyWlLk6GJQsqaUBKTNV-1">
          <mxGeometry x="644" y="490" width="80" height="40" as="geometry" />
        </mxCell>
        <mxCell id="CyENhcCUOeG8lhQ-ETVA-29" value="" style="rounded=0;html=1;jettySize=auto;orthogonalLoop=1;fontSize=11;endArrow=block;endFill=0;endSize=8;strokeWidth=1;shadow=0;labelBackgroundColor=none;edgeStyle=orthogonalEdgeStyle;" edge="1" parent="WIyWlLk6GJQsqaUBKTNV-1">
          <mxGeometry relative="1" as="geometry">
            <mxPoint x="683.3299999999999" y="450" as="sourcePoint" />
            <mxPoint x="683" y="490" as="targetPoint" />
            <Array as="points">
              <mxPoint x="683.3299999999999" y="450" />
            </Array>
          </mxGeometry>
        </mxCell>
        <mxCell id="CyENhcCUOeG8lhQ-ETVA-30" value="" style="rounded=0;html=1;jettySize=auto;orthogonalLoop=1;fontSize=11;endArrow=block;endFill=0;endSize=8;strokeWidth=1;shadow=0;labelBackgroundColor=none;edgeStyle=orthogonalEdgeStyle;" edge="1" parent="WIyWlLk6GJQsqaUBKTNV-1">
          <mxGeometry relative="1" as="geometry">
            <mxPoint x="933.66" y="500" as="sourcePoint" />
            <mxPoint x="933.33" y="540" as="targetPoint" />
            <Array as="points">
              <mxPoint x="933.66" y="500" />
            </Array>
          </mxGeometry>
        </mxCell>
        <mxCell id="CyENhcCUOeG8lhQ-ETVA-31" value="x" style="shape=parallelogram;perimeter=parallelogramPerimeter;whiteSpace=wrap;html=1;fixedSize=1;" vertex="1" parent="WIyWlLk6GJQsqaUBKTNV-1">
          <mxGeometry x="874" y="540" width="120" height="40" as="geometry" />
        </mxCell>
        <mxCell id="CyENhcCUOeG8lhQ-ETVA-32" value="Yes" style="edgeStyle=orthogonalEdgeStyle;rounded=0;html=1;jettySize=auto;orthogonalLoop=1;fontSize=11;endArrow=block;endFill=0;endSize=8;strokeWidth=1;shadow=0;labelBackgroundColor=none;" edge="1" parent="WIyWlLk6GJQsqaUBKTNV-1">
          <mxGeometry y="10" relative="1" as="geometry">
            <mxPoint as="offset" />
            <mxPoint x="724" y="510" as="sourcePoint" />
            <mxPoint x="784" y="550" as="targetPoint" />
          </mxGeometry>
        </mxCell>
        <mxCell id="CyENhcCUOeG8lhQ-ETVA-33" value="Pt vô nghiệm!" style="shape=parallelogram;perimeter=parallelogramPerimeter;whiteSpace=wrap;html=1;fixedSize=1;" vertex="1" parent="WIyWlLk6GJQsqaUBKTNV-1">
          <mxGeometry x="714" y="550" width="120" height="40" as="geometry" />
        </mxCell>
        <mxCell id="CyENhcCUOeG8lhQ-ETVA-34" value="No" style="rounded=0;html=1;jettySize=auto;orthogonalLoop=1;fontSize=11;endArrow=block;endFill=0;endSize=8;strokeWidth=1;shadow=0;labelBackgroundColor=none;edgeStyle=orthogonalEdgeStyle;" edge="1" parent="WIyWlLk6GJQsqaUBKTNV-1">
          <mxGeometry x="-0.0577" y="-10" relative="1" as="geometry">
            <mxPoint as="offset" />
            <mxPoint x="644" y="510" as="sourcePoint" />
            <mxPoint x="564" y="560" as="targetPoint" />
            <Array as="points">
              <mxPoint x="564" y="510" />
              <mxPoint x="564" y="560" />
            </Array>
          </mxGeometry>
        </mxCell>
        <mxCell id="CyENhcCUOeG8lhQ-ETVA-35" value="delta == 0" style="rhombus;whiteSpace=wrap;html=1;" vertex="1" parent="WIyWlLk6GJQsqaUBKTNV-1">
          <mxGeometry x="524" y="560" width="80" height="40" as="geometry" />
        </mxCell>
        <mxCell id="CyENhcCUOeG8lhQ-ETVA-36" value="Yes" style="edgeStyle=orthogonalEdgeStyle;rounded=0;html=1;jettySize=auto;orthogonalLoop=1;fontSize=11;endArrow=block;endFill=0;endSize=8;strokeWidth=1;shadow=0;labelBackgroundColor=none;" edge="1" parent="WIyWlLk6GJQsqaUBKTNV-1">
          <mxGeometry y="10" relative="1" as="geometry">
            <mxPoint as="offset" />
            <mxPoint x="604" y="580" as="sourcePoint" />
            <mxPoint x="664" y="620" as="targetPoint" />
          </mxGeometry>
        </mxCell>
        <mxCell id="CyENhcCUOeG8lhQ-ETVA-37" style="edgeStyle=orthogonalEdgeStyle;rounded=0;orthogonalLoop=1;jettySize=auto;html=1;exitX=0.5;exitY=1;exitDx=0;exitDy=0;" edge="1" parent="WIyWlLk6GJQsqaUBKTNV-1" source="CyENhcCUOeG8lhQ-ETVA-35">
          <mxGeometry relative="1" as="geometry">
            <mxPoint x="564" y="600" as="targetPoint" />
          </mxGeometry>
        </mxCell>
        <mxCell id="CyENhcCUOeG8lhQ-ETVA-39" value="No" style="rounded=0;html=1;jettySize=auto;orthogonalLoop=1;fontSize=11;endArrow=block;endFill=0;endSize=8;strokeWidth=1;shadow=0;labelBackgroundColor=none;edgeStyle=orthogonalEdgeStyle;entryX=0.449;entryY=-0.014;entryDx=0;entryDy=0;entryPerimeter=0;" edge="1" parent="WIyWlLk6GJQsqaUBKTNV-1" target="CyENhcCUOeG8lhQ-ETVA-44">
          <mxGeometry x="-0.0577" y="-10" relative="1" as="geometry">
            <mxPoint as="offset" />
            <mxPoint x="524" y="580" as="sourcePoint" />
            <mxPoint x="464" y="620" as="targetPoint" />
            <Array as="points">
              <mxPoint x="494" y="580" />
              <mxPoint x="494" y="619" />
            </Array>
          </mxGeometry>
        </mxCell>
        <mxCell id="CyENhcCUOeG8lhQ-ETVA-41" value="Kết thúc" style="ellipse;whiteSpace=wrap;html=1;" vertex="1" parent="WIyWlLk6GJQsqaUBKTNV-1">
          <mxGeometry x="828" y="760" width="120" height="60" as="geometry" />
        </mxCell>
        <mxCell id="CyENhcCUOeG8lhQ-ETVA-42" value="" style="rounded=0;html=1;jettySize=auto;orthogonalLoop=1;fontSize=11;endArrow=block;endFill=0;endSize=8;strokeWidth=1;shadow=0;labelBackgroundColor=none;edgeStyle=orthogonalEdgeStyle;entryX=0;entryY=0.5;entryDx=0;entryDy=0;" edge="1" parent="WIyWlLk6GJQsqaUBKTNV-1" target="CyENhcCUOeG8lhQ-ETVA-41">
          <mxGeometry relative="1" as="geometry">
            <mxPoint x="494" y="680" as="sourcePoint" />
            <mxPoint x="494" y="732.4242609197444" as="targetPoint" />
            <Array as="points">
              <mxPoint x="494" y="790" />
            </Array>
          </mxGeometry>
        </mxCell>
        <mxCell id="CyENhcCUOeG8lhQ-ETVA-43" value="&lt;br&gt;Pt có nghiệm kép&lt;br style=&quot;border-color: var(--border-color);&quot;&gt;&lt;span style=&quot;border-color: var(--border-color);&quot;&gt;x = -b / (2*a)&lt;/span&gt;" style="shape=parallelogram;perimeter=parallelogramPerimeter;whiteSpace=wrap;html=1;fixedSize=1;" vertex="1" parent="WIyWlLk6GJQsqaUBKTNV-1">
          <mxGeometry x="604" y="620" width="120" height="40" as="geometry" />
        </mxCell>
        <mxCell id="CyENhcCUOeG8lhQ-ETVA-44" value="Pt có hai nghiệm phân biệt&lt;br style=&quot;border-color: var(--border-color);&quot;&gt;x1 = (-b + sqrt(delta) / (2*a)&lt;br style=&quot;border-color: var(--border-color);&quot;&gt;x2 = (-b - sqrt(delta) / (2*a)" style="shape=parallelogram;perimeter=parallelogramPerimeter;whiteSpace=wrap;html=1;fixedSize=1;" vertex="1" parent="WIyWlLk6GJQsqaUBKTNV-1">
          <mxGeometry x="414" y="620" width="180" height="60" as="geometry" />
        </mxCell>
        <mxCell id="CyENhcCUOeG8lhQ-ETVA-46" value="" style="rounded=0;html=1;jettySize=auto;orthogonalLoop=1;fontSize=11;endArrow=block;endFill=0;endSize=8;strokeWidth=1;shadow=0;labelBackgroundColor=none;edgeStyle=orthogonalEdgeStyle;entryX=0;entryY=0;entryDx=0;entryDy=0;" edge="1" parent="WIyWlLk6GJQsqaUBKTNV-1" target="CyENhcCUOeG8lhQ-ETVA-41">
          <mxGeometry relative="1" as="geometry">
            <mxPoint x="661" y="660" as="sourcePoint" />
            <mxPoint x="834" y="770" as="targetPoint" />
            <Array as="points">
              <mxPoint x="661" y="769" />
            </Array>
          </mxGeometry>
        </mxCell>
        <mxCell id="CyENhcCUOeG8lhQ-ETVA-47" value="" style="rounded=0;html=1;jettySize=auto;orthogonalLoop=1;fontSize=11;endArrow=block;endFill=0;endSize=8;strokeWidth=1;shadow=0;labelBackgroundColor=none;edgeStyle=orthogonalEdgeStyle;" edge="1" parent="WIyWlLk6GJQsqaUBKTNV-1">
          <mxGeometry relative="1" as="geometry">
            <mxPoint x="788" y="590" as="sourcePoint" />
            <mxPoint x="868" y="760" as="targetPoint" />
            <Array as="points">
              <mxPoint x="788" y="700" />
            </Array>
          </mxGeometry>
        </mxCell>
        <mxCell id="CyENhcCUOeG8lhQ-ETVA-48" value="" style="rounded=0;html=1;jettySize=auto;orthogonalLoop=1;fontSize=11;endArrow=block;endFill=0;endSize=8;strokeWidth=1;shadow=0;labelBackgroundColor=none;edgeStyle=orthogonalEdgeStyle;entryX=0.5;entryY=0;entryDx=0;entryDy=0;" edge="1" parent="WIyWlLk6GJQsqaUBKTNV-1" target="CyENhcCUOeG8lhQ-ETVA-41">
          <mxGeometry relative="1" as="geometry">
            <mxPoint x="934" y="580" as="sourcePoint" />
            <mxPoint x="1268" y="690" as="targetPoint" />
            <Array as="points">
              <mxPoint x="934" y="690" />
              <mxPoint x="888" y="690" />
            </Array>
          </mxGeometry>
        </mxCell>
        <mxCell id="CyENhcCUOeG8lhQ-ETVA-49" value="" style="rounded=0;html=1;jettySize=auto;orthogonalLoop=1;fontSize=11;endArrow=block;endFill=0;endSize=8;strokeWidth=1;shadow=0;labelBackgroundColor=none;edgeStyle=orthogonalEdgeStyle;entryX=1;entryY=0.5;entryDx=0;entryDy=0;" edge="1" parent="WIyWlLk6GJQsqaUBKTNV-1" target="CyENhcCUOeG8lhQ-ETVA-41">
          <mxGeometry relative="1" as="geometry">
            <mxPoint x="1284" y="580" as="sourcePoint" />
            <mxPoint x="1451" y="790" as="targetPoint" />
            <Array as="points">
              <mxPoint x="1284" y="790" />
            </Array>
          </mxGeometry>
        </mxCell>
        <mxCell id="CyENhcCUOeG8lhQ-ETVA-50" value="" style="rounded=0;html=1;jettySize=auto;orthogonalLoop=1;fontSize=11;endArrow=block;endFill=0;endSize=8;strokeWidth=1;shadow=0;labelBackgroundColor=none;edgeStyle=orthogonalEdgeStyle;entryX=1;entryY=0;entryDx=0;entryDy=0;" edge="1" parent="WIyWlLk6GJQsqaUBKTNV-1" target="CyENhcCUOeG8lhQ-ETVA-41">
          <mxGeometry relative="1" as="geometry">
            <mxPoint x="1124" y="580" as="sourcePoint" />
            <mxPoint x="1458" y="690" as="targetPoint" />
            <Array as="points">
              <mxPoint x="1124" y="720" />
              <mxPoint x="930" y="720" />
            </Array>
          </mxGeometry>
        </mxCell>
        <mxCell id="CyENhcCUOeG8lhQ-ETVA-52" value="" style="rounded=0;html=1;jettySize=auto;orthogonalLoop=1;fontSize=11;endArrow=block;endFill=0;endSize=8;strokeWidth=1;shadow=0;labelBackgroundColor=none;edgeStyle=orthogonalEdgeStyle;" edge="1" parent="WIyWlLk6GJQsqaUBKTNV-1">
          <mxGeometry relative="1" as="geometry">
            <mxPoint x="874" y="310" as="sourcePoint" />
            <mxPoint x="874" y="360" as="targetPoint" />
          </mxGeometry>
        </mxCell>
        <mxCell id="CyENhcCUOeG8lhQ-ETVA-53" value="Bài 1: Nhập a,b, c. Tìm nghiệm của phương trình bậc 2" style="rounded=0;whiteSpace=wrap;html=1;" vertex="1" parent="WIyWlLk6GJQsqaUBKTNV-1">
          <mxGeometry x="200" y="150" width="410" height="60" as="geometry" />
        </mxCell>
      </root>
    </mxGraphModel>
  </diagram>
</mxfile>
